<svg width="162" height="129" viewBox="0 0 162 129" fill="none" xmlns="http://www.w3.org/2000/svg">
<g clip-path="url(#clip0_880_52714)">
<path opacity="0.7" d="M77.1691 68.384C76.1378 68.608 75.688 69.3593 76.1634 70.0673C76.6388 70.7753 77.8603 71.1654 78.8879 70.9451L85.6939 69.4785L85.5403 69.157L85.3355 68.7344C85.3355 68.7344 85.3355 68.7308 85.3355 68.7272C85.3026 68.6586 85.277 68.5899 85.255 68.5213C85.2477 68.496 85.2404 68.4707 85.2331 68.4454C85.2221 68.3985 85.2111 68.3515 85.2038 68.3082C85.2002 68.2793 85.1965 68.254 85.1928 68.2251C85.1892 68.1817 85.1855 68.1384 85.1855 68.0951C85.1855 68.0698 85.1855 68.0409 85.1855 68.0156C85.1855 67.9614 85.1965 67.9036 85.2075 67.8494C85.2075 67.8386 85.2075 67.8278 85.2111 67.8133C85.2879 67.4521 85.3464 67.0872 85.3794 66.7224L77.1691 68.384Z" fill="url(#paint0_linear_880_52714)"/>
<path d="M116.571 25.3845C114.779 25.3375 113.39 25.3339 111.601 25.4061C111.159 25.4242 110.815 25.7854 110.833 26.2044L111.638 45.1758C111.656 45.5948 112.029 45.9272 112.472 45.9091C114.26 45.8368 115.642 45.7176 117.427 45.5226C120.503 45.183 122.829 42.7339 122.935 39.7972C123.048 36.7341 122.92 33.6781 122.547 30.633C122.192 27.7143 119.665 25.4675 116.575 25.3809L116.571 25.3845Z" fill="#718CF6"/>
<path d="M116.538 28.6099C115.565 28.5593 115.236 28.5268 113.898 28.5738C113.411 28.5918 113.035 29.0506 113.057 29.5996L113.484 39.7428C113.506 40.2918 113.923 40.7181 114.406 40.6928C115.745 40.6314 116.07 40.5663 117.036 40.4363C118.1 40.2918 118.919 39.3815 118.977 38.2726C119.084 36.2353 118.934 32.6231 118.656 30.6002C118.506 29.5021 117.61 28.6605 116.538 28.6063V28.6099Z" fill="#BACAFA"/>
<path d="M55.2375 36.7339C55.3582 41.2889 55.5776 43.2322 56.2213 46.877C57.1209 51.9594 60.8256 55.7594 65.6384 56.6408C69.5369 57.3524 79.082 57.468 85.727 57.2982C92.372 57.1284 101.899 56.5288 105.757 55.6185C110.519 54.4951 114.019 50.5109 114.655 45.3887C115.112 41.7115 115.229 39.7645 115.108 35.2095C114.988 30.6545 114.768 28.7111 114.125 25.0664C113.225 19.984 109.52 16.184 104.708 15.3026C100.809 14.591 91.2639 13.8216 84.6189 13.9913C77.9739 14.1611 68.4471 15.4182 64.5888 16.3284C59.8272 17.4518 56.3273 21.4361 55.691 26.5582C55.2339 30.2355 55.1168 32.1825 55.2375 36.7375" fill="url(#paint1_linear_880_52714)"/>
<path d="M53.8298 27.9526C55.6145 27.7647 56.9969 27.6528 58.7852 27.5877C59.2277 27.5697 59.6008 27.902 59.6154 28.321L60.3395 47.296C60.3541 47.715 60.0104 48.0726 59.5678 48.0907C57.7795 48.1557 56.3898 48.1485 54.5978 48.0907C51.5075 47.9932 48.9914 45.7355 48.6477 42.8168C48.2893 39.7718 48.1722 36.7158 48.2966 33.6526C48.4173 30.7159 50.7542 28.2777 53.8298 27.949V27.9526Z" fill="#718CF6"/>
<path d="M53.4422 31.702C54.4041 31.572 54.7332 31.5142 56.0717 31.4492C56.5581 31.4275 56.9714 31.8537 56.9933 32.4028L57.4212 42.5459C57.4431 43.0949 57.0664 43.5537 56.58 43.5718C55.2415 43.6187 54.9087 43.5826 53.9396 43.532C52.8681 43.4778 51.9721 42.6362 51.8221 41.5381C51.5442 39.5152 51.3906 35.903 51.4966 33.8657C51.5551 32.7604 52.3743 31.8465 53.4386 31.7056L53.4422 31.702Z" fill="#BACAFA"/>
<path d="M81.1993 51.5369L91.6002 51.2407C98.0477 50.8722 100.004 48.2462 100.714 44.605C101.387 41.159 101.222 38.8183 100.743 35.0435C100.355 31.9984 97.9818 30.7558 95.2463 30.828L77.6043 31.3193C74.8688 31.3952 72.7111 33.6492 72.7879 36.3511L72.9927 43.2938C73.1609 48.7988 76.0683 51.6741 81.2029 51.5333L81.1993 51.5369Z" fill="#BACAFA"/>
<path d="M91.9184 43.384L94.1639 43.3226C95.3598 43.2901 96.3509 44.1173 96.3801 45.1684C96.4094 46.2196 95.4659 47.101 94.27 47.1335L92.0245 47.1949C90.8286 47.2274 89.8375 46.4002 89.8083 45.349C89.779 44.2979 90.7226 43.4165 91.9184 43.384Z" fill="#718CF6"/>
<path d="M81.3896 43.6767L83.6351 43.6153C84.831 43.5828 85.8221 44.41 85.8513 45.4611C85.8806 46.5123 84.937 47.3937 83.7412 47.4262L81.4957 47.4876C80.2998 47.5201 79.3087 46.6929 79.2795 45.6418C79.2502 44.5906 80.1938 43.7092 81.3896 43.6767Z" fill="#718CF6"/>
<path d="M70.3653 37.0024C70.2587 35.374 68.8365 34.1391 67.1888 34.2444C65.5411 34.3496 64.2918 35.7551 64.3984 37.3836L64.5294 39.3842C64.636 41.0127 66.0581 42.2475 67.7059 42.1422C69.3536 42.037 70.6029 40.6315 70.4963 39.003L70.3653 37.0024Z" fill="black"/>
<path d="M108.167 34.5874C108.06 32.9589 106.638 31.7241 104.99 31.8293C103.343 31.9346 102.093 33.34 102.2 34.9685L102.331 36.9691C102.437 38.5976 103.86 39.8324 105.507 39.7272C107.155 39.622 108.404 38.2165 108.298 36.588L108.167 34.5874Z" fill="black"/>
<path d="M105.439 35.5706C105.882 35.2889 106.181 34.8337 106.258 34.3172L106.39 33.443C106.397 33.3997 106.434 33.3672 106.478 33.3672C106.522 33.3672 106.558 33.3997 106.565 33.443L106.697 34.3172C106.774 34.8301 107.074 35.2889 107.516 35.5706L107.63 35.6429C107.655 35.6573 107.67 35.6862 107.67 35.7151C107.67 35.7513 107.655 35.7801 107.63 35.7946L107.516 35.8668C107.074 36.1486 106.774 36.6037 106.697 37.1203L106.565 37.9944C106.558 38.0378 106.522 38.0703 106.478 38.0703C106.434 38.0703 106.397 38.0378 106.39 37.9944L106.258 37.1203C106.181 36.6073 105.882 36.1486 105.439 35.8668L105.326 35.7946C105.3 35.7801 105.285 35.7513 105.285 35.7224C105.285 35.6862 105.3 35.6573 105.326 35.6429L105.439 35.5706Z" fill="white"/>
<path d="M67.2076 37.4237C67.6501 37.1419 67.95 36.6868 68.0268 36.1702L68.1584 35.2961C68.1657 35.2527 68.2023 35.2202 68.2462 35.2202C68.2901 35.2202 68.3266 35.2527 68.334 35.2961L68.4656 36.1702C68.5424 36.6832 68.8423 37.1419 69.2848 37.4237L69.3982 37.4959C69.4238 37.5104 69.4384 37.5393 69.4384 37.5682C69.4384 37.6043 69.4238 37.6332 69.3982 37.6476L69.2848 37.7199C68.8423 38.0016 68.5424 38.4568 68.4656 38.9733L68.334 39.8475C68.3266 39.8908 68.2901 39.9233 68.2462 39.9233C68.2023 39.9233 68.1657 39.8908 68.1584 39.8475L68.0268 38.9733C67.95 38.4604 67.6501 38.0016 67.2076 37.7199L67.0942 37.6476C67.0686 37.6332 67.054 37.6043 67.054 37.5754C67.054 37.5393 67.0686 37.5104 67.0942 37.4959L67.2076 37.4237Z" fill="white"/>
<path d="M66.4759 40.906C66.8435 40.906 67.1415 40.6117 67.1415 40.2486C67.1415 39.8855 66.8435 39.5912 66.4759 39.5912C66.1083 39.5912 65.8103 39.8855 65.8103 40.2486C65.8103 40.6117 66.1083 40.906 66.4759 40.906Z" fill="white"/>
<path d="M104.353 38.2798C104.72 38.2798 105.018 37.9855 105.018 37.6224C105.018 37.2593 104.72 36.965 104.353 36.965C103.985 36.965 103.687 37.2593 103.687 37.6224C103.687 37.9855 103.985 38.2798 104.353 38.2798Z" fill="white"/>
<path d="M82.7285 6.82837C83.1564 7.2799 83.566 7.70975 83.9646 8.12877C83.5623 7.70975 83.1527 7.2799 82.7285 6.82837Z" fill="#62C780"/>
<path d="M83.9683 8.12866C84.056 8.21897 84.1401 8.30927 84.2279 8.39958C84.1438 8.30927 84.056 8.21897 83.9683 8.12866Z" fill="#62C780"/>
<path d="M85.3508 9.56273C85.2813 9.49049 85.2118 9.42185 85.1423 9.34961C85.2118 9.41824 85.285 9.49771 85.3508 9.56634V9.56273Z" fill="#62C780"/>
<path d="M94.8667 5.26064C94.0804 5.10893 93.2429 5.07281 92.3798 5.15589C92.2994 5.16311 92.2189 5.17395 92.1348 5.18478C88.858 5.59658 87.2964 7.21485 85.3508 9.56279C88.9641 13.2725 91.184 15.299 91.184 15.299C91.184 15.299 92.1897 16.3827 94.0036 16.5488C95.2141 16.1009 96.4027 15.5518 97.5474 14.8764C98.6811 14.2045 99.5771 13.1569 99.9245 11.8999C99.9355 11.8638 99.9501 11.8277 99.9574 11.7879C100.096 11.2208 100.137 10.632 100.06 10.0324C99.7453 7.61219 97.6168 5.77358 94.863 5.26064H94.8667Z" fill="#83ED90"/>
<path d="M87.6143 16.8703C87.2413 16.9173 86.8536 16.7728 86.6049 16.4549C86.2356 15.9817 86.327 15.3026 86.8061 14.9378C91.0922 11.6904 93.7144 6.61888 93.9997 1.02716C94.0289 0.431148 94.5446 -0.0276041 95.148 0.00129361C95.7514 0.0301913 96.2159 0.539514 96.1866 1.13553C95.8684 7.3666 92.9354 13.0233 88.1409 16.6536C87.9837 16.7728 87.8008 16.8451 87.6143 16.8667V16.8703Z" fill="#3D8A46"/>
<path d="M85.6946 17.972C78.0183 14.5656 75.2791 10.0034 74.4563 8.20091C74.2076 7.65547 73.5603 7.41345 73.008 7.65908C72.4558 7.90471 72.2108 8.54407 72.4595 9.08952C74.0247 12.5247 77.2284 15.7468 81.467 18.2357C82.8421 18.3007 84.3817 18.3043 86.0091 18.1887C85.9177 18.102 85.8153 18.0261 85.6946 17.972Z" fill="#3D8A46"/>
<path d="M91.0519 15.1797C90.4705 14.6415 87.9544 12.2827 84.2241 8.3996C84.1363 8.3093 84.0522 8.21899 83.9644 8.12869C83.5621 7.70967 83.1525 7.27982 82.7283 6.82829C80.417 4.37559 78.0179 1.51833 73.2052 2.06377C69.0507 2.53697 66.2639 5.68322 66.4724 9.02813C66.7576 13.6084 69.7053 16.0358 75.4104 17.4807C75.4104 17.4807 77.8863 18.0659 81.4666 18.2357C77.239 15.7541 74.0426 12.5428 72.4737 9.11843C72.2506 8.63078 72.4006 8.02754 72.8577 7.73857C73.4392 7.36651 74.1853 7.60492 74.4559 8.19732C75.2787 9.99982 78.0179 14.562 85.6942 17.9684C85.8149 18.0226 85.921 18.0984 86.0088 18.1851C88.1372 18.0334 90.4119 17.683 92.6574 17.0003L94.0069 16.5488C94.0069 16.5488 92.5441 16.4043 91.0556 15.1797H91.0519Z" fill="#62C780"/>
<path d="M101.2 96.415C100.886 94.3741 99.1085 92.8678 97.0203 92.8678H65.024C62.9358 92.8678 61.1585 94.3741 60.8439 96.415L58.6131 110.857C58.0316 114.617 60.3539 118.236 64.0622 119.266C67.5621 120.238 72.8649 121.068 80.779 121.068H81.269C89.183 121.068 94.4895 120.238 97.9857 119.266C101.69 118.236 104.013 114.613 103.435 110.857L101.204 96.415H101.2Z" fill="#4D4D4D"/>
<path d="M93.4432 96.9099L92.09 97.1194C84.7575 98.2609 77.2896 98.2609 69.9571 97.1194L68.6039 96.9099C67.0862 96.9099 65.8538 95.6926 65.8538 94.1935V88.432C65.8538 86.2647 67.7847 84.5886 69.9607 84.8668L73.8263 85.3581C78.6025 85.9685 83.4409 85.9685 88.2171 85.3581L92.0827 84.8668C94.2587 84.5886 96.1897 86.2647 96.1897 88.432V94.1935C96.1897 95.6926 94.9572 96.9099 93.4395 96.9099H93.4432Z" fill="url(#paint2_linear_880_52714)"/>
<path d="M89.34 101.743H77.5969V114.31H89.34V101.743Z" fill="#747F8D"/>
<path d="M70.6851 101.866V114.191C70.6851 115.325 71.614 116.246 72.766 116.246H73.8046V99.8142H72.766C71.6176 99.8142 70.6851 100.732 70.6851 101.87V101.866Z" fill="#83ED90"/>
<path d="M89.4025 99.8104H75.8857V116.242H89.4025C90.5508 116.242 91.4834 115.321 91.4834 114.187V101.862C91.4834 100.728 90.5508 99.8068 89.4025 99.8068V99.8104ZM88.3639 110.08C88.3639 111.214 87.4313 112.135 86.283 112.135C85.1346 112.135 84.2021 111.214 84.2021 110.08C84.2021 108.946 85.1346 108.025 86.283 108.025V105.341L82.1248 106.71V111.106C82.1248 112.24 81.1922 113.161 80.0439 113.161C78.8956 113.161 77.963 112.24 77.963 111.106C77.963 109.972 78.8956 109.05 80.0439 109.05V105.969C80.0439 105.525 80.3292 105.135 80.7534 104.994L86.9924 102.939C87.3106 102.834 87.658 102.884 87.9287 103.079C88.1993 103.271 88.3602 103.582 88.3602 103.914V110.076L88.3639 110.08Z" fill="#83ED90"/>
<path d="M35.3865 19.2544C37.9647 17.6144 39.7019 14.9558 40.159 11.9577L40.9307 6.85724C40.9672 6.60439 41.1867 6.42017 41.4427 6.42017C41.6987 6.42017 41.9181 6.60439 41.9547 6.85724L42.7263 11.9577C43.1798 14.9522 44.9169 17.6108 47.4989 19.2544L48.1681 19.6806C48.3181 19.7745 48.4058 19.9371 48.4058 20.1105V20.143C48.4058 20.3164 48.3144 20.4789 48.1681 20.5728L47.4989 20.9991C44.9206 22.639 43.1835 25.2976 42.7263 28.2958L41.9547 33.3962C41.9181 33.6491 41.6987 33.8333 41.4427 33.8333C41.1867 33.8333 40.9672 33.6491 40.9307 33.3962L40.159 28.2958C39.7055 25.3012 37.9684 22.6426 35.3865 20.9991L34.7172 20.5728C34.5709 20.4789 34.4795 20.3164 34.4795 20.143V20.1105C34.4795 19.9371 34.5709 19.7745 34.7172 19.6806L35.3865 19.2544Z" fill="#FEDB5E"/>
<path d="M88.1369 85.3688C87.1238 85.4952 86.1072 85.5927 85.0905 85.665C84.4724 86.2176 82.7865 87.3555 78.3577 88.8148C77.6336 89.0532 77.2423 89.8262 77.4837 90.5415C77.6775 91.1122 78.2151 91.4734 78.7966 91.4734C78.9428 91.4734 79.0891 91.4517 79.2354 91.4048C86.8825 88.8871 88.3197 86.745 88.1405 85.3688H88.1369Z" fill="#D8529B"/>
<path d="M85.228 73.6499C88.8782 72.2594 90.1847 66.8997 88.1461 61.6787C86.1074 56.4576 81.4957 53.3523 77.8454 54.7428C74.1952 56.1333 72.8887 61.493 74.9274 66.7141C76.966 71.9351 81.5777 75.0404 85.228 73.6499Z" fill="url(#paint3_linear_880_52714)"/>
<path d="M81.1591 59.7368C79.8388 57.49 76.467 55.6441 73.0695 54.9831C64.5264 53.3215 56.9781 56.428 56.9781 56.428C52.2239 58.2341 50.761 62.93 51.1267 65.8197C51.6314 69.804 53.1308 72.0616 53.961 75.2043C54.451 77.0682 55.1971 79.2825 55.9724 81.4028C58.0899 87.204 63.4366 92.3984 71.6103 90.744C73.8485 90.2889 79.2903 89.2991 82.9255 87.316C87.336 84.9103 87.8736 79.7665 86.2388 75.9339L82.4135 66.9287C82.2599 66.6144 82.2233 66.3002 82.2855 66.0076C82.706 64.0714 82.5268 62.0558 81.3858 60.116L81.1591 59.7331V59.7368Z" fill="#7393F9"/>
<path d="M140.647 27.3193C142.647 26.0479 143.994 23.9848 144.349 21.6598L144.949 17.7039C144.978 17.5083 145.147 17.3663 145.349 17.3663C145.547 17.3663 145.716 17.5114 145.748 17.7039L146.348 21.6598C146.7 23.9848 148.047 26.0448 150.05 27.3193L150.571 27.6505C150.686 27.7231 150.756 27.8492 150.756 27.9849V28.0101C150.756 28.1458 150.686 28.272 150.571 28.3445L150.05 28.6758C148.051 29.9471 146.703 32.0102 146.348 34.3352L145.748 38.2911C145.719 38.4867 145.55 38.6287 145.349 38.6287C145.151 38.6287 144.981 38.4836 144.949 38.2911L144.349 34.3352C143.998 32.0102 142.65 29.9502 140.647 28.6758L140.127 28.3445C140.012 28.272 139.941 28.1458 139.941 28.0101V27.9849C139.941 27.8492 140.012 27.7231 140.127 27.6505L140.647 27.3193Z" fill="#66BAFF"/>
<path d="M22.0554 45.7096C23.4639 44.8137 24.4125 43.3625 24.6616 41.7253L25.0832 38.9397C25.1055 38.8041 25.2237 38.7 25.3642 38.7C25.5048 38.7 25.6229 38.8009 25.6453 38.9397L26.0669 41.7253C26.316 43.3625 27.2646 44.8137 28.6731 45.7096L29.0404 45.943C29.1202 45.9935 29.1713 46.0818 29.1713 46.1796V46.1954C29.1713 46.29 29.1234 46.3784 29.0404 46.432L28.6731 46.6654C27.2646 47.5614 26.316 49.0125 26.0669 50.6498L25.6453 53.4353C25.6229 53.571 25.5048 53.6751 25.3642 53.6751C25.2237 53.6751 25.1055 53.5741 25.0832 53.4353L24.6616 50.6498C24.4125 49.0125 23.4639 47.5614 22.0554 46.6654L21.6881 46.432C21.6082 46.3815 21.5571 46.2932 21.5571 46.1954V46.1796C21.5571 46.085 21.605 45.9967 21.6881 45.943L22.0554 45.7096Z" fill="#8FFFAB"/>
<path d="M135.345 52.9445C136.699 52.0297 137.229 50.3325 136.348 48.9665C136.332 48.9413 136.313 48.9129 136.297 48.8877C135.351 47.427 133.333 47.0958 131.966 48.181C126.421 52.5881 112.355 65.9796 102.477 82.6424C102.477 82.6424 122.004 61.9416 135.345 52.9445Z" fill="#83ED90"/>
<path d="M104.895 86.8885C104.71 86.9674 124.071 75.6737 139.769 70.1405C141.394 69.5663 143.129 70.6768 143.272 72.3771C143.381 73.6863 142.768 74.863 141.18 75.1374C141.18 75.1374 122.809 79.1439 104.898 86.8885H104.895Z" fill="#83ED90"/>
<path d="M128.137 97.8415C129.472 98.2895 130.912 97.5955 131.209 96.2326C131.481 94.9897 130.66 93.7783 129.398 93.5323C118.067 91.3177 106.291 91.1821 106.176 91.1694C106.176 91.1694 114.541 93.2673 128.137 97.8415Z" fill="#83ED90"/>
<path d="M53.4857 89.1407C53.671 89.2196 34.3097 77.9259 18.6118 72.3927C16.9861 71.8185 15.2519 72.929 15.1082 74.6293C14.9996 75.9385 15.6128 77.1152 17.2001 77.3896C17.2001 77.3896 35.5713 81.396 53.4825 89.1407H53.4857Z" fill="#83ED90"/>
<path d="M30.2438 100.094C28.9087 100.542 27.4683 99.8475 27.1712 98.4847C26.8998 97.2418 27.7206 96.0304 28.9822 95.7843C40.314 93.5698 52.0899 93.4341 52.2048 93.4215C52.2048 93.4215 43.8401 95.5193 30.2438 100.094Z" fill="#83ED90"/>
</g>
<defs>
<linearGradient id="paint0_linear_880_52714" x1="80.5663" y1="71.2973" x2="81.3187" y2="66.076" gradientUnits="userSpaceOnUse">
<stop stop-color="#718CF6"/>
<stop offset="1" stop-color="#4C70E0"/>
</linearGradient>
<linearGradient id="paint1_linear_880_52714" x1="83.2255" y1="13.948" x2="86.9939" y2="57.5881" gradientUnits="userSpaceOnUse">
<stop offset="0.67" stop-color="#718CF6"/>
<stop offset="0.78" stop-color="#6885F1"/>
<stop offset="0.96" stop-color="#5274E3"/>
<stop offset="1" stop-color="#4C70E0"/>
</linearGradient>
<linearGradient id="paint2_linear_880_52714" x1="79.6631" y1="98.8786" x2="82.4266" y2="83.0165" gradientUnits="userSpaceOnUse">
<stop offset="0.2" stop-color="#FF78B9"/>
<stop offset="0.45" stop-color="#F972B4"/>
<stop offset="0.79" stop-color="#E864A9"/>
<stop offset="1" stop-color="#DB58A0"/>
</linearGradient>
<linearGradient id="paint3_linear_880_52714" x1="85.7806" y1="56.9404" x2="77.4587" y2="71.5377" gradientUnits="userSpaceOnUse">
<stop stop-color="#7393F9"/>
<stop offset="1" stop-color="#4C70E0"/>
</linearGradient>
<clipPath id="clip0_880_52714">
<rect width="161" height="129" fill="white" transform="translate(0.5)"/>
</clipPath>
</defs>
</svg>
