<svg width="213" height="173" viewBox="0 0 213 173" fill="none" xmlns="http://www.w3.org/2000/svg" xmlns:xlink="http://www.w3.org/1999/xlink">
<path d="M108.498 62.5905L108.407 62.5737C108.134 62.5232 107.988 62.2731 108.024 62.0566L108.205 60.9741C108.248 60.7143 108.505 60.5832 108.732 60.6252L108.823 60.6421C109.096 60.6925 109.242 60.9427 109.206 61.1592L109.025 62.2416C108.989 62.4581 108.725 62.6326 108.498 62.5905Z" fill="#FF78B8"/>
<path d="M107.623 67.5584L107.532 67.5416C107.259 67.4911 107.113 67.241 107.149 67.0245L107.33 65.942C107.373 65.6822 107.63 65.5511 107.857 65.5931L107.948 65.61C108.221 65.6604 108.367 65.9106 108.331 66.1271L108.15 67.2095C108.107 67.4693 107.85 67.6005 107.623 67.5584Z" fill="#FF78B8"/>
<path d="M109.688 64.3694L109.702 64.284C109.745 64.0279 109.998 63.8986 110.222 63.94L111.344 64.147C111.613 64.1967 111.757 64.4433 111.721 64.6567L111.707 64.742C111.664 64.9981 111.411 65.1274 111.187 65.086L110.065 64.879C109.789 64.872 109.645 64.6254 109.688 64.3694Z" fill="#FF78B8"/>
<path d="M104.602 63.4754L104.616 63.3901C104.659 63.134 104.912 63.0047 105.136 63.0461L106.258 63.2531C106.527 63.3028 106.671 63.5493 106.636 63.7628L106.621 63.8481C106.578 64.1042 106.325 64.2335 106.101 64.1921L104.979 63.9851C104.703 63.9781 104.559 63.7315 104.602 63.4754Z" fill="#FF78B8"/>
<path d="M164.059 146.849L163.969 146.874C163.702 146.95 163.467 146.789 163.411 146.577L163.129 145.518C163.061 145.264 163.239 145.032 163.462 144.968L163.551 144.943C163.818 144.867 164.053 145.028 164.109 145.24L164.392 146.299C164.448 146.511 164.282 146.786 164.059 146.849Z" fill="#FFF2A6"/>
<path d="M165.395 151.713L165.305 151.738C165.038 151.814 164.803 151.653 164.747 151.441L164.464 150.382C164.397 150.128 164.575 149.895 164.797 149.832L164.887 149.807C165.154 149.731 165.389 149.892 165.445 150.104L165.728 151.163C165.795 151.417 165.618 151.649 165.395 151.713Z" fill="#FFF2A6"/>
<path d="M165.911 147.963L165.889 147.879C165.822 147.629 165.997 147.399 166.217 147.337L167.316 147.026C167.58 146.951 167.812 147.11 167.868 147.319L167.89 147.402C167.957 147.653 167.781 147.882 167.562 147.944L166.462 148.256C166.209 148.372 165.978 148.213 165.911 147.963Z" fill="#FFF2A6"/>
<path d="M160.931 149.332L160.908 149.248C160.841 148.998 161.017 148.769 161.237 148.706L162.336 148.395C162.6 148.32 162.831 148.479 162.887 148.688L162.909 148.771C162.976 149.022 162.801 149.251 162.581 149.313L161.482 149.625C161.229 149.741 160.997 149.582 160.931 149.332Z" fill="#FFF2A6"/>
<path d="M187.336 121.08L187.29 121.053C187.15 120.972 187.121 120.806 187.185 120.695L187.505 120.138C187.582 120.004 187.749 119.982 187.865 120.05L187.912 120.077C188.051 120.158 188.08 120.323 188.016 120.435L187.697 120.992C187.633 121.104 187.452 121.147 187.336 121.08Z" fill="#8CD9FF"/>
<path d="M185.86 123.635L185.813 123.608C185.674 123.527 185.645 123.362 185.709 123.25L186.028 122.693C186.105 122.559 186.273 122.537 186.389 122.605L186.435 122.632C186.575 122.713 186.604 122.879 186.54 122.99L186.22 123.547C186.143 123.681 185.976 123.703 185.86 123.635Z" fill="#8CD9FF"/>
<path d="M187.633 122.301L187.658 122.256C187.734 122.124 187.901 122.102 188.016 122.169L188.593 122.504C188.731 122.584 188.76 122.749 188.696 122.859L188.671 122.903C188.595 123.036 188.429 123.058 188.313 122.991L187.737 122.656C187.585 122.597 187.557 122.433 187.633 122.301Z" fill="#8CD9FF"/>
<path d="M185.016 120.79L185.041 120.746C185.117 120.613 185.283 120.592 185.399 120.659L185.975 120.993C186.114 121.074 186.143 121.238 186.079 121.349L186.054 121.393C185.978 121.525 185.812 121.547 185.696 121.48L185.119 121.145C184.968 121.087 184.939 120.923 185.016 120.79Z" fill="#8CD9FF"/>
<g clip-path="url(#clip0_6154_20270)">
<path d="M40.2541 126.568L37.2368 126.882C37.0666 126.898 36.8953 126.864 36.7439 126.785L34.0386 125.43C33.9817 125.401 33.9181 125.389 33.8546 125.393C33.7912 125.398 33.73 125.419 33.6777 125.455C33.6253 125.491 33.5836 125.541 33.557 125.599C33.5303 125.656 33.5197 125.72 33.5262 125.784L33.8334 128.795C33.8511 128.963 33.8202 129.132 33.7443 129.282L32.3857 132.002C32.3572 132.059 32.3445 132.123 32.3489 132.186C32.3534 132.25 32.3748 132.311 32.411 132.363C32.4472 132.416 32.4968 132.457 32.5546 132.484C32.6124 132.511 32.6763 132.521 32.7396 132.515L35.7589 132.199C35.9266 132.182 36.0957 132.213 36.2464 132.289L38.9585 133.653C39.0154 133.682 39.0789 133.695 39.1424 133.69C39.2059 133.686 39.267 133.664 39.3194 133.628C39.3718 133.592 39.4135 133.542 39.4401 133.485C39.4667 133.427 39.4774 133.363 39.4708 133.3L39.1549 130.28C39.1374 130.112 39.1683 129.943 39.2441 129.792L40.6081 127.08C40.6366 127.024 40.6493 126.96 40.6448 126.897C40.6404 126.833 40.6189 126.772 40.5827 126.72C40.5466 126.667 40.497 126.625 40.4392 126.599C40.3814 126.572 40.3175 126.561 40.2541 126.568Z" fill="#E67E22"/>
<path d="M39.7902 119.352L38.3966 119.496C38.3547 119.499 38.3127 119.49 38.275 119.471L37.0224 118.841C36.9662 118.813 36.9035 118.8 36.8408 118.805C36.7782 118.809 36.7179 118.83 36.6662 118.866C36.6146 118.902 36.5735 118.95 36.5472 119.008C36.521 119.065 36.5106 119.128 36.517 119.19L36.6623 120.588C36.6662 120.631 36.6584 120.673 36.6398 120.712L36.012 121.964C35.9839 122.02 35.9714 122.083 35.9759 122.146C35.9803 122.208 36.0015 122.269 36.0373 122.32C36.073 122.372 36.122 122.413 36.179 122.44C36.2361 122.466 36.2992 122.477 36.3616 122.47L37.7571 122.325C37.7985 122.321 37.8402 122.329 37.8774 122.347L39.13 122.978C39.1862 123.006 39.2489 123.019 39.3115 123.014C39.3742 123.01 39.4345 122.989 39.4862 122.953C39.5378 122.917 39.5789 122.868 39.6052 122.811C39.6314 122.754 39.6418 122.691 39.6354 122.629L39.4895 121.234C39.4848 121.192 39.4926 121.149 39.512 121.111L40.1451 119.866C40.1756 119.809 40.1898 119.745 40.1861 119.68C40.1825 119.616 40.1611 119.554 40.1244 119.501C40.0877 119.447 40.0371 119.405 39.9781 119.379C39.9192 119.353 39.8541 119.344 39.7902 119.352Z" fill="#E67E22"/>
</g>
<path d="M125.607 34.5366L123.444 32.1577C123.323 32.0227 123.245 31.8552 123.218 31.676L122.675 28.5153C122.664 28.4488 122.635 28.3866 122.591 28.3352C122.547 28.2837 122.491 28.245 122.427 28.223C122.363 28.201 122.295 28.1966 122.229 28.2101C122.163 28.2237 122.101 28.2548 122.051 28.3001L119.673 30.4537C119.541 30.5741 119.377 30.654 119.201 30.6837L116.026 31.2321C115.959 31.2435 115.897 31.2725 115.846 31.3162C115.794 31.3599 115.756 31.4166 115.734 31.4804C115.712 31.5442 115.707 31.6127 115.721 31.6788C115.734 31.7449 115.765 31.8062 115.811 31.8561L117.976 34.2358C118.096 34.3681 118.176 34.5319 118.206 34.7081L118.744 37.8807C118.756 37.9472 118.785 38.0094 118.829 38.0608C118.872 38.1122 118.929 38.1509 118.993 38.1729C119.056 38.1949 119.125 38.1994 119.191 38.1858C119.257 38.1723 119.318 38.1412 119.368 38.0958L121.748 35.9296C121.88 35.8093 122.044 35.7294 122.22 35.6995L125.392 35.1607C125.459 35.1493 125.521 35.1202 125.572 35.0765C125.624 35.0328 125.662 34.9761 125.684 34.9123C125.706 34.8486 125.711 34.78 125.697 34.7139C125.684 34.6478 125.653 34.5866 125.607 34.5366Z" fill="#738EF5"/>
<path d="M131.478 29.6072L130.48 28.5076C130.451 28.4738 130.432 28.4327 130.424 28.3887L130.176 26.9234C130.164 26.8577 130.136 26.7963 130.093 26.7455C130.05 26.6948 129.994 26.6565 129.931 26.6349C129.868 26.6132 129.8 26.6088 129.735 26.6222C129.67 26.6357 129.61 26.6664 129.56 26.7112L128.458 27.7132C128.424 27.7432 128.383 27.7634 128.338 27.7716L126.875 28.0222C126.809 28.0335 126.748 28.0622 126.697 28.1054C126.646 28.1486 126.608 28.2046 126.587 28.2676C126.565 28.3306 126.56 28.3983 126.574 28.4636C126.587 28.5289 126.618 28.5893 126.662 28.6387L127.663 29.739C127.692 29.7716 127.712 29.8121 127.719 29.8556L127.968 31.3209C127.979 31.3865 128.008 31.448 128.051 31.4987C128.094 31.5495 128.15 31.5877 128.213 31.6094C128.276 31.6311 128.343 31.6355 128.408 31.6221C128.474 31.6086 128.534 31.5779 128.583 31.5331L129.682 30.5326C129.716 30.5019 129.757 30.4816 129.802 30.4742L131.262 30.233C131.33 30.2233 131.394 30.1951 131.446 30.1515C131.499 30.1079 131.539 30.0506 131.561 29.9859C131.583 29.9212 131.587 29.8516 131.573 29.7848C131.558 29.718 131.525 29.6565 131.478 29.6072Z" fill="#738EF5"/>
<defs>
<clipPath id="clip0_6154_20270">
<rect width="19.8624" height="19.8624" fill="white" transform="translate(23 125.287) rotate(-34.6305)"/>
</clipPath>
</defs>
</svg>
